<?xml version="1.0" encoding="utf-8"?>
<svg viewBox="0 0 13 13" xmlns="http://www.w3.org/2000/svg">
  <path d="M 6 0 L 7 0 L 7 2 L 9 2 L 9 3 L 10 3 L 10 2 L 11 2 L 11 3 L 10 3 L 10 4 L 11 4 L 11 6 L 13 6 L 13 7 L 11 7 L 11 9 L 10 9 L 10 10 L 11 10 L 11 11 L 10 11 L 10 10 L 9 10 L 9 11 L 7 11 L 7 13 L 6 13 L 6 11 L 4 11 L 4 10 L 3 10 L 3 11 L 2 11 L 2 10 L 3 10 L 3 9 L 2 9 L 2 7 L 0 7 L 0 6 L 2 6 L 2 4 L 3 4 L 3 3 L 2 3 L 2 2 L 3 2 L 3 3 L 4 3 L 4 2 L 6 2 L 6 0 Z M 4 4 L 4 6 L 6 6 L 6 4 L 4 4 Z"/>
</svg>